<?xml version="1.0" encoding="utf-8"?>
<!-- Generator: Adobe Illustrator 21.1.0, SVG Export Plug-In . SVG Version: 6.00 Build 0)  -->
<svg version="1.1" id="Layer_1" xmlns="http://www.w3.org/2000/svg" xmlns:xlink="http://www.w3.org/1999/xlink" x="0px" y="0px"
	 viewBox="0 0 264.4 123.2" style="enable-background:new 0 0 264.4 123.2;" xml:space="preserve">
<style type="text/css">
	.st0{fill:#433C39;}
	.st1{fill:#433C39;stroke:#433C39;stroke-miterlimit:10;}
</style>
<path class="st0" d="M111.2,2.9l0.3,85.5c0,0-2.9,18.7-21.6,19.6S67.7,86.1,67.7,86.1V2.9H54.6v83.8c0,0,0,32.7,34.8,34.8
	c0,0,29.8,0,35.4-29.2c0.5-81.2,0.6-88.7,0.6-89.3H111.2z"/>
<path class="st0" d="M212.3,2.9c0,1.6-0.1,12.6-0.6,89.2c-5.5,29.2-35.4,29.2-35.4,29.2c-34.8-2-34.8-34.8-34.8-34.8V2.9h13.1v83
	c0,0,3.5,22.8,22.2,21.9s21.6-19.6,21.6-19.6l-0.3-85.4H212.3z"/>
<path class="st0" d="M241.6,2.9c0.1,6.5,0.6,73.1,0.9,87c0.3,14.6,20.8,17.8,20.8,17.8v13.7c-30.7-1.2-35.4-29.2-35.4-29.2V2.9
	H241.6z"/>
<path class="st1" d="M38.8,2.9l-0.3,89.6c-6.3,27.4-35.3,28.9-35.3,28.9v-14.3c17.3,0,21.3-17.5,21.3-17.5V2.9H38.8z"/>
</svg>
